# Blender v2.79 (sub 0) OBJ File: 'start.blend'
# www.blender.org
mtllib start.mtl
o Cube
v -1.398080 2.365748 -3.969052
v -1.398080 2.365748 1.926553
v -3.398080 2.365748 1.926552
v -3.398080 2.365748 -3.969052
v -1.398080 4.365747 -3.969051
v -1.398081 4.365747 1.926553
v -3.398080 4.365747 1.926552
v -3.398080 4.365747 -3.969052
vt 0.750000 0.000000
vt 0.750000 0.746694
vt 0.500000 0.746694
vt 0.500000 0.000000
vt 0.750000 0.000000
vt 1.000000 0.000000
vt 1.000000 0.746694
vt 0.750000 0.746694
vt 0.500000 0.746694
vt 0.250000 0.746694
vt 0.250000 0.000000
vt 0.500000 0.000000
vt 0.000000 1.000000
vt 0.000000 0.746695
vt 0.250000 0.746694
vt 0.250000 1.000000
vt 0.250000 0.746694
vt 0.000000 0.746694
vt 0.000000 0.000000
vt 0.250000 0.000000
vt 0.500000 1.000000
vt 0.250000 1.000000
vn 0.0000 -1.0000 -0.0000
vn 0.0000 1.0000 0.0000
vn 1.0000 0.0000 0.0000
vn -0.0000 -0.0000 1.0000
vn -1.0000 0.0000 -0.0000
vn 0.0000 0.0000 -1.0000
usemtl Material.001
s off
f 1/1/1 2/2/1 3/3/1 4/4/1
f 5/5/2 8/6/2 7/7/2 6/8/2
f 1/9/3 5/10/3 6/11/3 2/12/3
f 2/13/4 6/14/4 7/15/4 3/16/4
f 3/17/5 7/18/5 8/19/5 4/20/5
f 5/10/6 1/9/6 4/21/6 8/22/6
